<?xml version="1.0" standalone="no"?>
<!DOCTYPE svg PUBLIC "-//W3C//DTD SVG 20010904//EN"
 "http://www.w3.org/TR/2001/REC-SVG-20010904/DTD/svg10.dtd">
<svg version="1.0" xmlns="http://www.w3.org/2000/svg"
 width="800.000000pt" height="800.000000pt" viewBox="0 0 800.000000 800.000000"
 preserveAspectRatio="xMidYMid meet">
<metadata>
Created by potrace 1.14, written by Peter Selinger 2001-2017
</metadata>
<g transform="translate(0.000000,800.000000) scale(0.100000,-0.100000)"
fill="#000000" stroke="none">
<path d="M5595 6059 c-160 -111 -338 -235 -397 -276 -59 -41 -110 -79 -114
-84 -3 -6 48 -65 115 -131 66 -66 121 -123 121 -127 0 -5 -425 -433 -944 -953
l-944 -946 -168 170 c-93 93 -181 176 -195 183 -45 24 -105 2 -115 -43 -3 -15
-7 -33 -9 -39 -5 -15 28 -55 107 -134 l58 -57 -590 -592 c-324 -325 -605 -610
-623 -633 -53 -65 -72 -128 -71 -227 1 -68 6 -96 26 -140 37 -81 98 -144 176
-182 61 -30 74 -33 162 -33 167 0 124 -35 830 670 l615 614 60 -62 c89 -92
112 -108 148 -101 40 7 44 10 62 45 10 18 13 39 9 56 -4 18 -71 93 -178 201
-94 95 -172 176 -174 181 -1 4 423 433 942 953 l945 946 115 -116 c69 -68 120
-112 125 -106 11 11 565 755 574 770 3 6 -81 97 -186 202 l-193 193 -289 -202z
m445 -202 c0 -7 -126 -182 -167 -232 -5 -5 -53 -70 -107 -142 -54 -73 -100
-133 -103 -133 -8 0 -312 308 -315 318 -2 6 114 92 257 191 l260 181 87 -87
c49 -48 88 -91 88 -96z m-2669 -2499 l140 -141 -598 -600 c-405 -406 -611
-605 -638 -618 -109 -51 -242 7 -276 120 -13 43 -6 112 15 151 11 19 1202
1227 1214 1229 1 1 66 -63 143 -141z"/>
<path d="M2557 6234 c-1 -1 -33 -4 -72 -8 -92 -8 -169 -28 -239 -61 -43 -20
-63 -73 -43 -111 7 -12 93 -107 192 -210 l180 -187 1 -126 c1 -69 -1 -131 -3
-136 -2 -7 -57 -10 -143 -10 l-140 0 -63 59 c-34 32 -116 111 -182 175 -134
130 -135 131 -175 137 -77 13 -139 -134 -145 -346 -6 -175 27 -308 113 -455
50 -86 168 -213 245 -264 204 -137 448 -178 691 -116 l60 16 331 -331 c181
-181 334 -330 338 -330 8 0 117 107 117 114 0 7 -706 709 -727 723 -20 13 -31
12 -110 -11 -114 -33 -144 -38 -228 -38 -306 2 -563 201 -643 501 -20 73 -26
270 -10 287 5 4 47 -31 95 -79 121 -118 178 -172 208 -195 23 -19 41 -20 243
-21 227 0 261 5 285 43 21 32 23 436 2 474 -8 15 -77 92 -154 172 -164 170
-165 165 19 157 83 -4 132 -12 175 -28 225 -83 376 -250 436 -483 27 -104 21
-253 -15 -365 -15 -46 -25 -93 -22 -106 3 -12 168 -185 367 -384 l362 -363 61
61 61 61 -333 333 -332 332 20 95 c105 501 -241 976 -743 1019 -43 4 -79 6
-80 5z"/>
<path d="M4362 3987 c-29 -29 -52 -55 -52 -59 0 -13 718 -726 736 -732 11 -3
58 6 105 20 178 55 354 42 519 -38 69 -34 101 -59 170 -128 93 -94 145 -182
176 -300 18 -68 25 -234 11 -283 l-7 -27 -28 27 c-35 35 -226 211 -271 251
l-34 30 -208 1 c-139 1 -216 -3 -233 -11 -49 -22 -53 -39 -54 -248 0 -107 2
-207 4 -222 5 -27 18 -42 207 -236 55 -56 98 -105 95 -108 -3 -3 -42 -8 -87
-11 -328 -22 -629 205 -697 528 -21 100 -14 249 17 344 27 82 29 103 12 131
-15 27 -709 724 -720 724 -11 0 -113 -103 -113 -114 0 -5 147 -157 328 -338
193 -194 326 -336 326 -346 -1 -9 -9 -51 -18 -92 -16 -71 -22 -237 -11 -290 3
-14 8 -41 11 -60 4 -19 18 -65 31 -102 124 -348 460 -573 828 -555 222 11 362
77 342 159 -4 15 -60 82 -126 150 -65 68 -149 156 -188 196 l-69 72 1 128 0
127 129 1 129 1 55 -51 c30 -28 65 -60 77 -71 11 -11 48 -44 80 -74 33 -30 88
-81 122 -113 75 -71 115 -83 156 -47 31 27 62 110 82 213 12 65 13 256 1 301
-40 153 -68 219 -131 316 -204 306 -587 441 -951 334 -17 -5 -78 52 -350 324
-181 182 -334 331 -339 331 -6 0 -34 -24 -63 -53z"/>
</g>
</svg>
